<?xml version="1.0" encoding="UTF-8" standalone="no"?>
<!DOCTYPE svg PUBLIC "-//W3C//DTD SVG 1.1//EN"
 "http://www.w3.org/Graphics/SVG/1.1/DTD/svg11.dtd">
<!-- Generated by graphviz version 2.47.3 (20210619.1520)
 -->
<!-- Title: dependencies Pages: 1 -->
<svg width="578pt" height="318pt"
 viewBox="0.00 0.00 578.00 317.80" xmlns="http://www.w3.org/2000/svg" xmlns:xlink="http://www.w3.org/1999/xlink">
<g id="graph0" class="graph" transform="scale(1 1) rotate(0) translate(4 313.8)">
<title>dependencies</title>
<polygon fill="white" stroke="transparent" points="-4,4 -4,-313.8 574,-313.8 574,4 -4,4"/>
<text text-anchor="middle" x="285" y="-8.2" font-family="sans-serif" font-size="14.00">dependencies</text>
<g id="clust1" class="cluster">
<title>cluster_AppModule</title>
<polygon fill="none" stroke="black" stroke-dasharray="1,5" points="68,-108.8 68,-301.8 344,-301.8 344,-108.8 68,-108.8"/>
</g>
<g id="clust3" class="cluster">
<title>cluster_AppModule_imports</title>
<polygon fill="none" stroke="black" points="228,-116.8 228,-236.8 336,-236.8 336,-116.8 228,-116.8"/>
</g>
<g id="clust6" class="cluster">
<title>cluster_AppModule_providers</title>
<polygon fill="none" stroke="black" points="76,-184.8 76,-236.8 206,-236.8 206,-184.8 76,-184.8"/>
</g>
<g id="clust7" class="cluster">
<title>cluster_TasksModule</title>
<polygon fill="none" stroke="black" stroke-dasharray="1,5" points="352,-108.8 352,-176.8 510,-176.8 510,-108.8 352,-108.8"/>
</g>
<g id="clust12" class="cluster">
<title>cluster_TasksModule_providers</title>
<polygon fill="none" stroke="black" points="360,-116.8 360,-168.8 502,-168.8 502,-116.8 360,-116.8"/>
</g>
<g id="clust13" class="cluster">
<title>cluster_UsersModule</title>
<polygon fill="none" stroke="black" stroke-dasharray="1,5" points="8,-32.8 8,-100.8 562,-100.8 562,-32.8 8,-32.8"/>
</g>
<g id="clust16" class="cluster">
<title>cluster_UsersModule_exports</title>
<polygon fill="none" stroke="black" points="444,-40.8 444,-92.8 554,-92.8 554,-40.8 444,-40.8"/>
</g>
<g id="clust18" class="cluster">
<title>cluster_UsersModule_providers</title>
<polygon fill="none" stroke="black" points="16,-40.8 16,-92.8 436,-92.8 436,-40.8 16,-40.8"/>
</g>
<!-- TasksModule -->
<g id="node1" class="node">
<title>TasksModule</title>
<polygon fill="#8dd3c7" stroke="black" points="328.21,-228.8 325.21,-232.8 304.21,-232.8 301.21,-228.8 235.79,-228.8 235.79,-192.8 328.21,-192.8 328.21,-228.8"/>
<text text-anchor="middle" x="282" y="-206.6" font-family="Times,serif" font-size="14.00">TasksModule</text>
</g>
<!-- AppModule -->
<g id="node3" class="node">
<title>AppModule</title>
<polygon fill="#8dd3c7" stroke="black" points="258.66,-293.8 255.66,-297.8 234.66,-297.8 231.66,-293.8 175.34,-293.8 175.34,-257.8 258.66,-257.8 258.66,-293.8"/>
<text text-anchor="middle" x="217" y="-271.6" font-family="Times,serif" font-size="14.00">AppModule</text>
</g>
<!-- TasksModule&#45;&gt;AppModule -->
<g id="edge1" class="edge">
<title>TasksModule&#45;&gt;AppModule</title>
<path fill="none" stroke="black" d="M247.36,-228.91C247.36,-228.91 247.36,-247.79 247.36,-247.79"/>
<polygon fill="black" stroke="black" points="243.86,-247.79 247.36,-257.79 250.86,-247.79 243.86,-247.79"/>
</g>
<!-- UsersModule -->
<g id="node2" class="node">
<title>UsersModule</title>
<polygon fill="#8dd3c7" stroke="black" points="327.92,-160.8 324.92,-164.8 303.92,-164.8 300.92,-160.8 236.08,-160.8 236.08,-124.8 327.92,-124.8 327.92,-160.8"/>
<text text-anchor="middle" x="282" y="-138.6" font-family="Times,serif" font-size="14.00">UsersModule</text>
</g>
<!-- UsersModule&#45;&gt;TasksModule -->
<g id="edge4" class="edge">
<title>UsersModule&#45;&gt;TasksModule</title>
<path fill="none" stroke="black" d="M282,-161.02C282,-161.02 282,-182.53 282,-182.53"/>
<polygon fill="black" stroke="black" points="278.5,-182.53 282,-192.53 285.5,-182.53 278.5,-182.53"/>
</g>
<!-- UsersModule&#45;&gt;AppModule -->
<g id="edge2" class="edge">
<title>UsersModule&#45;&gt;AppModule</title>
<path fill="none" stroke="black" d="M235.98,-148.8C225.18,-148.8 216.76,-148.8 216.76,-148.8 216.76,-148.8 216.76,-247.6 216.76,-247.6"/>
<polygon fill="black" stroke="black" points="213.26,-247.6 216.76,-257.6 220.26,-247.6 213.26,-247.6"/>
</g>
<!-- UsersService  -->
<g id="node6" class="node">
<title>UsersService </title>
<polygon fill="#fb8072" stroke="black" points="545.85,-84.8 452.15,-84.8 452.15,-48.8 545.85,-48.8 545.85,-84.8"/>
<text text-anchor="middle" x="499" y="-62.6" font-family="Times,serif" font-size="14.00">UsersService </text>
</g>
<!-- UsersModule&#45;&gt;UsersService  -->
<g id="edge6" class="edge">
<title>UsersModule&#45;&gt;UsersService </title>
<path fill="none" stroke="black" stroke-dasharray="5,2" d="M323.26,-124.69C323.26,-114.9 323.26,-104.8 323.26,-104.8 323.26,-104.8 472.92,-104.8 472.92,-104.8 472.92,-104.8 472.92,-94.91 472.92,-94.91"/>
<polygon fill="black" stroke="black" points="476.42,-94.91 472.92,-84.91 469.42,-94.91 476.42,-94.91"/>
</g>
<!-- AppService -->
<g id="node4" class="node">
<title>AppService</title>
<ellipse fill="#fdb462" stroke="black" cx="141" cy="-210.8" rx="56.74" ry="18"/>
<text text-anchor="middle" x="141" y="-206.6" font-family="Times,serif" font-size="14.00">AppService</text>
</g>
<!-- AppService&#45;&gt;AppModule -->
<g id="edge3" class="edge">
<title>AppService&#45;&gt;AppModule</title>
<path fill="none" stroke="black" d="M186.4,-221.83C186.4,-221.83 186.4,-247.58 186.4,-247.58"/>
<polygon fill="black" stroke="black" points="182.9,-247.58 186.4,-257.58 189.9,-247.58 182.9,-247.58"/>
</g>
<!-- TasksService -->
<g id="node5" class="node">
<title>TasksService</title>
<ellipse fill="#fdb462" stroke="black" cx="431" cy="-142.8" rx="62.54" ry="18"/>
<text text-anchor="middle" x="431" y="-138.6" font-family="Times,serif" font-size="14.00">TasksService</text>
</g>
<!-- TasksService&#45;&gt;TasksModule -->
<g id="edge5" class="edge">
<title>TasksService&#45;&gt;TasksModule</title>
<path fill="none" stroke="black" d="M431,-161.02C431,-181.17 431,-210.8 431,-210.8 431,-210.8 338.33,-210.8 338.33,-210.8"/>
<polygon fill="black" stroke="black" points="338.33,-207.3 328.33,-210.8 338.33,-214.3 338.33,-207.3"/>
</g>
<!-- JwtStrategy -->
<g id="node7" class="node">
<title>JwtStrategy</title>
<ellipse fill="#fdb462" stroke="black" cx="371" cy="-66.8" rx="56.76" ry="18"/>
<text text-anchor="middle" x="371" y="-62.6" font-family="Times,serif" font-size="14.00">JwtStrategy</text>
</g>
<!-- JwtStrategy&#45;&gt;UsersModule -->
<g id="edge7" class="edge">
<title>JwtStrategy&#45;&gt;UsersModule</title>
<path fill="none" stroke="black" d="M318.82,-73.81C318.82,-73.81 318.82,-114.69 318.82,-114.69"/>
<polygon fill="black" stroke="black" points="315.32,-114.69 318.82,-124.69 322.32,-114.69 315.32,-114.69"/>
</g>
<!-- LocalStrategy -->
<g id="node8" class="node">
<title>LocalStrategy</title>
<ellipse fill="#fdb462" stroke="black" cx="231" cy="-66.8" rx="65.41" ry="18"/>
<text text-anchor="middle" x="231" y="-62.6" font-family="Times,serif" font-size="14.00">LocalStrategy</text>
</g>
<!-- LocalStrategy&#45;&gt;UsersModule -->
<g id="edge8" class="edge">
<title>LocalStrategy&#45;&gt;UsersModule</title>
<path fill="none" stroke="black" d="M266.25,-82.18C266.25,-82.18 266.25,-114.77 266.25,-114.77"/>
<polygon fill="black" stroke="black" points="262.75,-114.77 266.25,-124.77 269.75,-114.77 262.75,-114.77"/>
</g>
<!-- UsersService -->
<g id="node9" class="node">
<title>UsersService</title>
<ellipse fill="#fdb462" stroke="black" cx="86" cy="-66.8" rx="61.95" ry="18"/>
<text text-anchor="middle" x="86" y="-62.6" font-family="Times,serif" font-size="14.00">UsersService</text>
</g>
<!-- UsersService&#45;&gt;UsersModule -->
<g id="edge9" class="edge">
<title>UsersService&#45;&gt;UsersModule</title>
<path fill="none" stroke="black" d="M116.18,-82.68C116.18,-103.34 116.18,-136.8 116.18,-136.8 116.18,-136.8 226.25,-136.8 226.25,-136.8"/>
<polygon fill="black" stroke="black" points="226.25,-140.3 236.25,-136.8 226.25,-133.3 226.25,-140.3"/>
</g>
</g>
</svg>
