<?xml version="1.0" encoding="UTF-8" standalone="no"?>
<!DOCTYPE svg PUBLIC "-//W3C//DTD SVG 1.1//EN"
 "http://www.w3.org/Graphics/SVG/1.1/DTD/svg11.dtd">
<!-- Generated by graphviz version 2.47.3 (20210619.1520)
 -->
<!-- Title: dependencies Pages: 1 -->
<svg width="298pt" height="174pt"
 viewBox="0.00 0.00 298.00 173.80" xmlns="http://www.w3.org/2000/svg" xmlns:xlink="http://www.w3.org/1999/xlink">
<g id="graph0" class="graph" transform="scale(1 1) rotate(0) translate(4 169.8)">
<title>dependencies</title>
<polygon fill="white" stroke="transparent" points="-4,4 -4,-169.8 294,-169.8 294,4 -4,4"/>
<text text-anchor="middle" x="145" y="-8.2" font-family="sans-serif" font-size="14.00">dependencies</text>
<g id="clust1" class="cluster">
<title>cluster_TasksModule</title>
<polygon fill="none" stroke="black" stroke-dasharray="1,5" points="8,-32.8 8,-157.8 282,-157.8 282,-32.8 8,-32.8"/>
</g>
<g id="clust6" class="cluster">
<title>cluster_TasksModule_providers</title>
<polygon fill="none" stroke="black" points="132,-40.8 132,-92.8 274,-92.8 274,-40.8 132,-40.8"/>
</g>
<g id="clust3" class="cluster">
<title>cluster_TasksModule_imports</title>
<polygon fill="none" stroke="black" points="16,-40.8 16,-92.8 124,-92.8 124,-40.8 16,-40.8"/>
</g>
<!-- UsersModule -->
<g id="node1" class="node">
<title>UsersModule</title>
<polygon fill="#8dd3c7" stroke="black" points="115.92,-84.8 112.92,-88.8 91.92,-88.8 88.92,-84.8 24.08,-84.8 24.08,-48.8 115.92,-48.8 115.92,-84.8"/>
<text text-anchor="middle" x="70" y="-62.6" font-family="Times,serif" font-size="14.00">UsersModule</text>
</g>
<!-- TasksModule -->
<g id="node2" class="node">
<title>TasksModule</title>
<polygon fill="#8dd3c7" stroke="black" points="182.21,-149.8 179.21,-153.8 158.21,-153.8 155.21,-149.8 89.79,-149.8 89.79,-113.8 182.21,-113.8 182.21,-149.8"/>
<text text-anchor="middle" x="136" y="-127.6" font-family="Times,serif" font-size="14.00">TasksModule</text>
</g>
<!-- UsersModule&#45;&gt;TasksModule -->
<g id="edge1" class="edge">
<title>UsersModule&#45;&gt;TasksModule</title>
<path fill="none" stroke="black" d="M102.8,-84.91C102.8,-84.91 102.8,-103.79 102.8,-103.79"/>
<polygon fill="black" stroke="black" points="99.3,-103.79 102.8,-113.79 106.3,-103.79 99.3,-103.79"/>
</g>
<!-- TasksService -->
<g id="node3" class="node">
<title>TasksService</title>
<ellipse fill="#fdb462" stroke="black" cx="203" cy="-66.8" rx="62.54" ry="18"/>
<text text-anchor="middle" x="203" y="-62.6" font-family="Times,serif" font-size="14.00">TasksService</text>
</g>
<!-- TasksService&#45;&gt;TasksModule -->
<g id="edge2" class="edge">
<title>TasksService&#45;&gt;TasksModule</title>
<path fill="none" stroke="black" d="M161.29,-80.27C161.29,-80.27 161.29,-103.66 161.29,-103.66"/>
<polygon fill="black" stroke="black" points="157.79,-103.66 161.29,-113.66 164.79,-103.66 157.79,-103.66"/>
</g>
</g>
</svg>
